<svg xmlns="http://www.w3.org/2000/svg" viewBox="0 0 700 700" width="700" height="700">
<defs>
  <radialGradient id="fg" cx="350" cy="350" r="245" gradientUnits="userSpaceOnUse">
    <stop offset="0%"   stop-color="#040E05"/>
    <stop offset="10%"  stop-color="#163F18"/>
    <stop offset="26%"  stop-color="#2E7D32"/>
    <stop offset="44%"  stop-color="#33691E"/>
    <stop offset="60%"  stop-color="#4A7C17"/>
    <stop offset="74%"  stop-color="#7CB342"/>
    <stop offset="88%"  stop-color="#AED581"/>
    <stop offset="100%" stop-color="#F1F8E9"/>
  </radialGradient>
  <radialGradient id="glow" cx="50%" cy="54%" r="46%">
    <stop offset="0%"   stop-color="#2E7D32" stop-opacity="0.20"/>
    <stop offset="100%" stop-color="#2E7D32" stop-opacity="0"/>
  </radialGradient>
  <filter id="s0" x="-30%" y="-30%" width="160%" height="160%">
    <feDropShadow dx="1" dy="5" stdDeviation="7"   flood-color="#040E05" flood-opacity="0.72"/>
  </filter>
  <filter id="s1" x="-25%" y="-25%" width="150%" height="150%">
    <feDropShadow dx="1" dy="3.5" stdDeviation="5" flood-color="#040E05" flood-opacity="0.60"/>
  </filter>
  <filter id="s2" x="-20%" y="-20%" width="140%" height="140%">
    <feDropShadow dx="0" dy="2.5" stdDeviation="4" flood-color="#040E05" flood-opacity="0.46"/>
  </filter>
</defs>
<ellipse cx="350" cy="365" rx="240" ry="220" fill="url(#glow)"/>
<g fill="url(#fg)" filter="url(#s0)">
  <path d="M 26.45,-115.00 L 13.23,-220.80 Q 0.00,-235.70 -13.23,-220.80 L -26.45,-115.00 Z" transform="translate(350,350) rotate(0.00)"/>
  <path d="M 26.12,-113.58 L 13.06,-218.08 Q 0.00,-232.80 -13.06,-218.08 L -26.12,-113.58 Z" transform="translate(350,350) rotate(12.00)"/>
  <path d="M 25.80,-112.16 L 12.90,-215.35 Q 0.00,-229.89 -12.90,-215.35 L -25.80,-112.16 Z" transform="translate(350,350) rotate(24.00)"/>
  <path d="M 25.47,-110.74 L 12.74,-212.63 Q 0.00,-226.98 -12.74,-212.63 L -25.47,-110.74 Z" transform="translate(350,350) rotate(36.00)"/>
  <path d="M 25.14,-109.32 L 12.57,-209.90 Q 0.00,-224.07 -12.57,-209.90 L -25.14,-109.32 Z" transform="translate(350,350) rotate(48.00)"/>
  <path d="M 24.82,-107.91 L 12.41,-207.18 Q 0.00,-221.16 -12.41,-207.18 L -24.82,-107.91 Z" transform="translate(350,350) rotate(60.00)"/>
  <path d="M 24.49,-106.49 L 12.25,-204.45 Q 0.00,-218.25 -12.25,-204.45 L -24.49,-106.49 Z" transform="translate(350,350) rotate(72.00)"/>
  <path d="M 24.17,-105.07 L 12.08,-201.73 Q 0.00,-215.35 -12.08,-201.73 L -24.17,-105.07 Z" transform="translate(350,350) rotate(84.00)"/>
  <path d="M 23.84,-103.65 L 11.92,-199.01 Q 0.00,-212.44 -11.92,-199.01 L -23.84,-103.65 Z" transform="translate(350,350) rotate(96.00)"/>
  <path d="M 23.51,-102.23 L 11.76,-196.28 Q 0.00,-209.53 -11.76,-196.28 L -23.51,-102.23 Z" transform="translate(350,350) rotate(108.00)"/>
  <path d="M 23.19,-100.81 L 11.59,-193.56 Q 0.00,-206.62 -11.59,-193.56 L -23.19,-100.81 Z" transform="translate(350,350) rotate(120.00)"/>
  <path d="M 22.86,-99.39 L 11.43,-190.83 Q 0.00,-203.71 -11.43,-190.83 L -22.86,-99.39 Z" transform="translate(350,350) rotate(132.00)"/>
  <path d="M 22.53,-97.97 L 11.27,-188.11 Q 0.00,-200.81 -11.27,-188.11 L -22.53,-97.97 Z" transform="translate(350,350) rotate(144.00)"/>
  <path d="M 22.21,-96.55 L 11.10,-185.38 Q 0.00,-197.90 -11.10,-185.38 L -22.21,-96.55 Z" transform="translate(350,350) rotate(156.00)"/>
  <path d="M 21.88,-95.14 L 10.94,-182.66 Q 0.00,-194.99 -10.94,-182.66 L -21.88,-95.14 Z" transform="translate(350,350) rotate(168.00)"/>
  <path d="M 21.55,-93.72 L 10.78,-179.94 Q 0.00,-192.08 -10.78,-179.94 L -21.55,-93.72 Z" transform="translate(350,350) rotate(180.00)"/>
  <path d="M 21.23,-92.30 L 10.61,-177.21 Q 0.00,-189.17 -10.61,-177.21 L -21.23,-92.30 Z" transform="translate(350,350) rotate(192.00)"/>
  <path d="M 20.90,-90.88 L 10.45,-174.49 Q 0.00,-186.26 -10.45,-174.49 L -20.90,-90.88 Z" transform="translate(350,350) rotate(204.00)"/>
  <path d="M 20.58,-89.46 L 10.29,-171.76 Q 0.00,-183.36 -10.29,-171.76 L -20.58,-89.46 Z" transform="translate(350,350) rotate(216.00)"/>
  <path d="M 20.25,-88.04 L 10.12,-169.04 Q 0.00,-180.45 -10.12,-169.04 L -20.25,-88.04 Z" transform="translate(350,350) rotate(228.00)"/>
  <path d="M 19.92,-86.62 L 9.96,-166.31 Q 0.00,-177.54 -9.96,-166.31 L -19.92,-86.62 Z" transform="translate(350,350) rotate(240.00)"/>
  <path d="M 19.60,-85.20 L 9.80,-163.59 Q 0.00,-174.63 -9.80,-163.59 L -19.60,-85.20 Z" transform="translate(350,350) rotate(252.00)"/>
  <path d="M 19.27,-83.78 L 9.64,-160.86 Q 0.00,-171.72 -9.64,-160.86 L -19.27,-83.78 Z" transform="translate(350,350) rotate(264.00)"/>
  <path d="M 18.94,-82.36 L 9.47,-158.14 Q 0.00,-168.82 -9.47,-158.14 L -18.94,-82.36 Z" transform="translate(350,350) rotate(276.00)"/>
  <path d="M 18.62,-80.95 L 9.31,-155.42 Q 0.00,-165.91 -9.31,-155.42 L -18.62,-80.95 Z" transform="translate(350,350) rotate(288.00)"/>
</g>
<g fill="url(#fg)" filter="url(#s1)">
  <path d="M 18.29,-79.53 L 9.15,-152.69 Q 0.00,-163.00 -9.15,-152.69 L -18.29,-79.53 Z" transform="translate(350,350) rotate(300.00)"/>
  <path d="M 17.96,-78.11 L 8.98,-149.97 Q 0.00,-160.09 -8.98,-149.97 L -17.96,-78.11 Z" transform="translate(350,350) rotate(312.00)"/>
  <path d="M 17.64,-76.69 L 8.82,-147.24 Q 0.00,-157.18 -8.82,-147.24 L -17.64,-76.69 Z" transform="translate(350,350) rotate(324.00)"/>
  <path d="M 17.31,-75.27 L 8.66,-144.52 Q 0.00,-154.27 -8.66,-144.52 L -17.31,-75.27 Z" transform="translate(350,350) rotate(336.00)"/>
  <path d="M 16.99,-73.85 L 8.49,-141.79 Q 0.00,-151.37 -8.49,-141.79 L -16.99,-73.85 Z" transform="translate(350,350) rotate(348.00)"/>
  <path d="M 16.66,-72.43 L 8.33,-139.07 Q 0.00,-148.46 -8.33,-139.07 L -16.66,-72.43 Z" transform="translate(350,350) rotate(360.00)"/>
  <path d="M 16.33,-71.01 L 8.17,-136.35 Q 0.00,-145.55 -8.17,-136.35 L -16.33,-71.01 Z" transform="translate(350,350) rotate(372.00)"/>
  <path d="M 16.01,-69.59 L 8.00,-133.62 Q 0.00,-142.64 -8.00,-133.62 L -16.01,-69.59 Z" transform="translate(350,350) rotate(384.00)"/>
  <path d="M 15.68,-68.18 L 7.84,-130.90 Q 0.00,-139.73 -7.84,-130.90 L -15.68,-68.18 Z" transform="translate(350,350) rotate(396.00)"/>
  <path d="M 15.35,-66.76 L 7.68,-128.17 Q 0.00,-136.82 -7.68,-128.17 L -15.35,-66.76 Z" transform="translate(350,350) rotate(408.00)"/>
  <path d="M 15.03,-65.34 L 7.51,-125.45 Q 0.00,-133.92 -7.51,-125.45 L -15.03,-65.34 Z" transform="translate(350,350) rotate(420.00)"/>
  <path d="M 14.70,-63.92 L 7.35,-122.72 Q 0.00,-131.01 -7.35,-122.72 L -14.70,-63.92 Z" transform="translate(350,350) rotate(432.00)"/>
  <path d="M 14.38,-62.50 L 7.19,-120.00 Q 0.00,-128.10 -7.19,-120.00 L -14.38,-62.50 Z" transform="translate(350,350) rotate(444.00)"/>
  <path d="M 14.05,-61.08 L 7.02,-117.28 Q 0.00,-125.19 -7.02,-117.28 L -14.05,-61.08 Z" transform="translate(350,350) rotate(456.00)"/>
  <path d="M 13.72,-59.66 L 6.86,-114.55 Q 0.00,-122.28 -6.86,-114.55 L -13.72,-59.66 Z" transform="translate(350,350) rotate(468.00)"/>
  <path d="M 13.40,-58.24 L 6.70,-111.83 Q 0.00,-119.38 -6.70,-111.83 L -13.40,-58.24 Z" transform="translate(350,350) rotate(480.00)"/>
  <path d="M 13.07,-56.82 L 6.53,-109.10 Q 0.00,-116.47 -6.53,-109.10 L -13.07,-56.82 Z" transform="translate(350,350) rotate(492.00)"/>
  <path d="M 12.74,-55.41 L 6.37,-106.38 Q 0.00,-113.56 -6.37,-106.38 L -12.74,-55.41 Z" transform="translate(350,350) rotate(504.00)"/>
  <path d="M 12.42,-53.99 L 6.21,-103.65 Q 0.00,-110.65 -6.21,-103.65 L -12.42,-53.99 Z" transform="translate(350,350) rotate(516.00)"/>
  <path d="M 12.09,-52.57 L 6.05,-100.93 Q 0.00,-107.74 -6.05,-100.93 L -12.09,-52.57 Z" transform="translate(350,350) rotate(528.00)"/>
  <path d="M 11.76,-51.15 L 5.88,-98.21 Q 0.00,-104.83 -5.88,-98.21 L -11.76,-51.15 Z" transform="translate(350,350) rotate(540.00)"/>
  <path d="M 11.44,-49.73 L 5.72,-95.46 Q 0.00,-101.94 -5.72,-95.46 L -11.44,-49.73 Z" transform="translate(350,350) rotate(552.00)"/>
  <path d="M 11.11,-48.31 L 5.56,-92.62 Q 0.00,-99.10 -5.56,-92.62 L -11.11,-48.31 Z" transform="translate(350,350) rotate(564.00)"/>
  <path d="M 10.79,-46.89 L 5.39,-89.78 Q 0.00,-96.26 -5.39,-89.78 L -10.79,-46.89 Z" transform="translate(350,350) rotate(576.00)"/>
  <path d="M 10.46,-45.47 L 5.23,-86.95 Q 0.00,-93.43 -5.23,-86.95 L -10.46,-45.47 Z" transform="translate(350,350) rotate(588.00)"/>
</g>
<g fill="url(#fg)" filter="url(#s2)">
  <path d="M 10.13,-44.05 L 5.07,-84.11 Q 0.00,-90.59 -5.07,-84.11 L -10.13,-44.05 Z" transform="translate(350,350) rotate(600.00)"/>
  <path d="M 9.81,-42.64 L 4.90,-81.27 Q 0.00,-87.75 -4.90,-81.27 L -9.81,-42.64 Z" transform="translate(350,350) rotate(612.00)"/>
  <path d="M 9.48,-41.22 L 4.74,-78.43 Q 0.00,-84.91 -4.74,-78.43 L -9.48,-41.22 Z" transform="translate(350,350) rotate(624.00)"/>
  <path d="M 9.15,-39.80 L 4.58,-75.59 Q 0.00,-82.07 -4.58,-75.59 L -9.15,-39.80 Z" transform="translate(350,350) rotate(636.00)"/>
  <path d="M 8.83,-38.38 L 4.41,-72.76 Q 0.00,-79.24 -4.41,-72.76 L -8.83,-38.38 Z" transform="translate(350,350) rotate(648.00)"/>
  <path d="M 8.50,-36.96 L 4.25,-69.92 Q 0.00,-76.40 -4.25,-69.92 L -8.50,-36.96 Z" transform="translate(350,350) rotate(660.00)"/>
  <path d="M 8.17,-35.54 L 4.09,-67.08 Q 0.00,-73.56 -4.09,-67.08 L -8.17,-35.54 Z" transform="translate(350,350) rotate(672.00)"/>
  <path d="M 7.85,-34.12 L 3.92,-64.24 Q 0.00,-70.72 -3.92,-64.24 L -7.85,-34.12 Z" transform="translate(350,350) rotate(684.00)"/>
  <path d="M 7.52,-32.70 L 3.76,-61.41 Q 0.00,-67.89 -3.76,-61.41 L -7.52,-32.70 Z" transform="translate(350,350) rotate(696.00)"/>
  <path d="M 7.20,-31.28 L 3.60,-58.57 Q 0.00,-65.05 -3.60,-58.57 L -7.20,-31.28 Z" transform="translate(350,350) rotate(708.00)"/>
  <path d="M 6.87,-29.86 L 3.43,-55.73 Q 0.00,-62.21 -3.43,-55.73 L -6.87,-29.86 Z" transform="translate(350,350) rotate(720.00)"/>
  <path d="M 6.54,-28.45 L 3.27,-52.89 Q 0.00,-59.37 -3.27,-52.89 L -6.54,-28.45 Z" transform="translate(350,350) rotate(732.00)"/>
  <path d="M 6.22,-27.03 L 3.11,-50.05 Q 0.00,-56.53 -3.11,-50.05 L -6.22,-27.03 Z" transform="translate(350,350) rotate(744.00)"/>
  <path d="M 5.89,-25.61 L 2.94,-47.22 Q 0.00,-53.70 -2.94,-47.22 L -5.89,-25.61 Z" transform="translate(350,350) rotate(756.00)"/>
  <path d="M 5.56,-24.19 L 2.78,-44.38 Q 0.00,-50.86 -2.78,-44.38 L -5.56,-24.19 Z" transform="translate(350,350) rotate(768.00)"/>
  <path d="M 5.24,-22.77 L 2.62,-41.54 Q 0.00,-48.02 -2.62,-41.54 L -5.24,-22.77 Z" transform="translate(350,350) rotate(780.00)"/>
  <path d="M 4.91,-21.35 L 2.46,-38.70 Q 0.00,-45.18 -2.46,-38.70 L -4.91,-21.35 Z" transform="translate(350,350) rotate(792.00)"/>
  <path d="M 4.58,-19.93 L 2.29,-35.86 Q 0.00,-42.34 -2.29,-35.86 L -4.58,-19.93 Z" transform="translate(350,350) rotate(804.00)"/>
  <path d="M 4.26,-18.51 L 2.13,-33.03 Q 0.00,-39.51 -2.13,-33.03 L -4.26,-18.51 Z" transform="translate(350,350) rotate(816.00)"/>
  <path d="M 3.93,-17.09 L 1.97,-30.19 Q 0.00,-36.67 -1.97,-30.19 L -3.93,-17.09 Z" transform="translate(350,350) rotate(828.00)"/>
  <path d="M 3.61,-15.68 L 1.80,-27.35 Q 0.00,-33.83 -1.80,-27.35 L -3.61,-15.68 Z" transform="translate(350,350) rotate(840.00)"/>
  <path d="M 3.28,-14.26 L 1.64,-24.51 Q 0.00,-30.99 -1.64,-24.51 L -3.28,-14.26 Z" transform="translate(350,350) rotate(852.00)"/>
  <path d="M 2.95,-12.84 L 1.48,-21.68 Q 0.00,-28.16 -1.48,-21.68 L -2.95,-12.84 Z" transform="translate(350,350) rotate(864.00)"/>
  <path d="M 2.63,-11.42 L 1.31,-18.84 Q 0.00,-25.32 -1.31,-18.84 L -2.63,-11.42 Z" transform="translate(350,350) rotate(876.00)"/>
  <path d="M 2.30,-10.00 L 1.15,-16.00 Q 0.00,-22.48 -1.15,-16.00 L -2.30,-10.00 Z" transform="translate(350,350) rotate(888.00)"/>
</g>
<g>
  <path d="M 13.23,-220.80 Q 0.00,-235.70 -13.23,-220.80 L -7.27,-225.40 Q 0.00,-231.47 7.27,-225.40 Z" transform="translate(350,350) rotate(0.00)" fill="#D4EDDA" opacity="0.85"/>
  <path d="M 13.06,-218.08 Q 0.00,-232.80 -13.06,-218.08 L -7.18,-222.62 Q 0.00,-228.62 7.18,-222.62 Z" transform="translate(350,350) rotate(12.00)" fill="#D4EDDA" opacity="0.84"/>
  <path d="M 12.90,-215.35 Q 0.00,-229.89 -12.90,-215.35 L -7.09,-219.84 Q 0.00,-225.76 7.09,-219.84 Z" transform="translate(350,350) rotate(24.00)" fill="#D4EDDA" opacity="0.83"/>
  <path d="M 12.74,-212.63 Q 0.00,-226.98 -12.74,-212.63 L -7.00,-217.06 Q 0.00,-222.90 7.00,-217.06 Z" transform="translate(350,350) rotate(36.00)" fill="#D4EDDA" opacity="0.83"/>
  <path d="M 12.57,-209.90 Q 0.00,-224.07 -12.57,-209.90 L -6.91,-214.28 Q 0.00,-220.05 6.91,-214.28 Z" transform="translate(350,350) rotate(48.00)" fill="#D4EDDA" opacity="0.82"/>
  <path d="M 12.41,-207.18 Q 0.00,-221.16 -12.41,-207.18 L -6.83,-211.49 Q 0.00,-217.19 6.83,-211.49 Z" transform="translate(350,350) rotate(60.00)" fill="#D4EDDA" opacity="0.81"/>
  <path d="M 12.25,-204.45 Q 0.00,-218.25 -12.25,-204.45 L -6.74,-208.71 Q 0.00,-214.34 6.74,-208.71 Z" transform="translate(350,350) rotate(72.00)" fill="#D4EDDA" opacity="0.80"/>
  <path d="M 12.08,-201.73 Q 0.00,-215.35 -12.08,-201.73 L -6.65,-205.93 Q 0.00,-211.48 6.65,-205.93 Z" transform="translate(350,350) rotate(84.00)" fill="#D4EDDA" opacity="0.80"/>
  <path d="M 11.92,-199.01 Q 0.00,-212.44 -11.92,-199.01 L -6.56,-203.15 Q 0.00,-208.62 6.56,-203.15 Z" transform="translate(350,350) rotate(96.00)" fill="#D4EDDA" opacity="0.79"/>
  <path d="M 11.76,-196.28 Q 0.00,-209.53 -11.76,-196.28 L -6.47,-200.37 Q 0.00,-205.77 6.47,-200.37 Z" transform="translate(350,350) rotate(108.00)" fill="#D4EDDA" opacity="0.78"/>
  <path d="M 11.59,-193.56 Q 0.00,-206.62 -11.59,-193.56 L -6.38,-197.59 Q 0.00,-202.91 6.38,-197.59 Z" transform="translate(350,350) rotate(120.00)" fill="#D4EDDA" opacity="0.77"/>
  <path d="M 11.43,-190.83 Q 0.00,-203.71 -11.43,-190.83 L -6.29,-194.81 Q 0.00,-200.06 6.29,-194.81 Z" transform="translate(350,350) rotate(132.00)" fill="#D4EDDA" opacity="0.76"/>
  <path d="M 11.27,-188.11 Q 0.00,-200.81 -11.27,-188.11 L -6.20,-192.03 Q 0.00,-197.20 6.20,-192.03 Z" transform="translate(350,350) rotate(144.00)" fill="#D4EDDA" opacity="0.76"/>
  <path d="M 11.10,-185.38 Q 0.00,-197.90 -11.10,-185.38 L -6.11,-189.25 Q 0.00,-194.34 6.11,-189.25 Z" transform="translate(350,350) rotate(156.00)" fill="#D4EDDA" opacity="0.75"/>
  <path d="M 10.94,-182.66 Q 0.00,-194.99 -10.94,-182.66 L -6.02,-186.46 Q 0.00,-191.49 6.02,-186.46 Z" transform="translate(350,350) rotate(168.00)" fill="#D4EDDA" opacity="0.74"/>
  <path d="M 10.78,-179.94 Q 0.00,-192.08 -10.78,-179.94 L -5.93,-183.68 Q 0.00,-188.63 5.93,-183.68 Z" transform="translate(350,350) rotate(180.00)" fill="#D4EDDA" opacity="0.73"/>
  <path d="M 10.61,-177.21 Q 0.00,-189.17 -10.61,-177.21 L -5.84,-180.90 Q 0.00,-185.78 5.84,-180.90 Z" transform="translate(350,350) rotate(192.00)" fill="#D4EDDA" opacity="0.72"/>
  <path d="M 10.45,-174.49 Q 0.00,-186.26 -10.45,-174.49 L -5.75,-178.12 Q 0.00,-182.92 5.75,-178.12 Z" transform="translate(350,350) rotate(204.00)" fill="#D4EDDA" opacity="0.72"/>
  <path d="M 10.29,-171.76 Q 0.00,-183.36 -10.29,-171.76 L -5.66,-175.34 Q 0.00,-180.06 5.66,-175.34 Z" transform="translate(350,350) rotate(216.00)" fill="#D4EDDA" opacity="0.71"/>
  <path d="M 10.12,-169.04 Q 0.00,-180.45 -10.12,-169.04 L -5.57,-172.56 Q 0.00,-177.21 5.57,-172.56 Z" transform="translate(350,350) rotate(228.00)" fill="#D4EDDA" opacity="0.70"/>
  <path d="M 9.96,-166.31 Q 0.00,-177.54 -9.96,-166.31 L -5.48,-169.78 Q 0.00,-174.35 5.48,-169.78 Z" transform="translate(350,350) rotate(240.00)" fill="#D4EDDA" opacity="0.69"/>
  <path d="M 9.80,-163.59 Q 0.00,-174.63 -9.80,-163.59 L -5.39,-167.00 Q 0.00,-171.50 5.39,-167.00 Z" transform="translate(350,350) rotate(252.00)" fill="#D4EDDA" opacity="0.69"/>
  <path d="M 9.64,-160.86 Q 0.00,-171.72 -9.64,-160.86 L -5.30,-164.22 Q 0.00,-168.64 5.30,-164.22 Z" transform="translate(350,350) rotate(264.00)" fill="#D4EDDA" opacity="0.68"/>
  <path d="M 9.47,-158.14 Q 0.00,-168.82 -9.47,-158.14 L -5.21,-161.44 Q 0.00,-165.78 5.21,-161.44 Z" transform="translate(350,350) rotate(276.00)" fill="#D4EDDA" opacity="0.67"/>
  <path d="M 9.31,-155.42 Q 0.00,-165.91 -9.31,-155.42 L -5.12,-158.65 Q 0.00,-162.93 5.12,-158.65 Z" transform="translate(350,350) rotate(288.00)" fill="#D4EDDA" opacity="0.66"/>
  <path d="M 9.15,-152.69 Q 0.00,-163.00 -9.15,-152.69 L -5.03,-155.87 Q 0.00,-160.07 5.03,-155.87 Z" transform="translate(350,350) rotate(300.00)" fill="#D4EDDA" opacity="0.65"/>
  <path d="M 8.98,-149.97 Q 0.00,-160.09 -8.98,-149.97 L -4.94,-153.09 Q 0.00,-157.22 4.94,-153.09 Z" transform="translate(350,350) rotate(312.00)" fill="#D4EDDA" opacity="0.65"/>
  <path d="M 8.82,-147.24 Q 0.00,-157.18 -8.82,-147.24 L -4.85,-150.31 Q 0.00,-154.36 4.85,-150.31 Z" transform="translate(350,350) rotate(324.00)" fill="#D4EDDA" opacity="0.64"/>
  <path d="M 8.66,-144.52 Q 0.00,-154.27 -8.66,-144.52 L -4.76,-147.53 Q 0.00,-151.50 4.76,-147.53 Z" transform="translate(350,350) rotate(336.00)" fill="#D4EDDA" opacity="0.63"/>
  <path d="M 8.49,-141.79 Q 0.00,-151.37 -8.49,-141.79 L -4.67,-144.75 Q 0.00,-148.65 4.67,-144.75 Z" transform="translate(350,350) rotate(348.00)" fill="#D4EDDA" opacity="0.62"/>
  <path d="M 8.33,-139.07 Q 0.00,-148.46 -8.33,-139.07 L -4.58,-141.97 Q 0.00,-145.79 4.58,-141.97 Z" transform="translate(350,350) rotate(360.00)" fill="#D4EDDA" opacity="0.61"/>
  <path d="M 8.17,-136.35 Q 0.00,-145.55 -8.17,-136.35 L -4.49,-139.19 Q 0.00,-142.94 4.49,-139.19 Z" transform="translate(350,350) rotate(372.00)" fill="#D4EDDA" opacity="0.61"/>
  <path d="M 8.00,-133.62 Q 0.00,-142.64 -8.00,-133.62 L -4.40,-136.41 Q 0.00,-140.08 4.40,-136.41 Z" transform="translate(350,350) rotate(384.00)" fill="#D4EDDA" opacity="0.60"/>
  <path d="M 7.84,-130.90 Q 0.00,-139.73 -7.84,-130.90 L -4.31,-133.62 Q 0.00,-137.22 4.31,-133.62 Z" transform="translate(350,350) rotate(396.00)" fill="#D4EDDA" opacity="0.59"/>
  <path d="M 7.68,-128.17 Q 0.00,-136.82 -7.68,-128.17 L -4.22,-130.84 Q 0.00,-134.37 4.22,-130.84 Z" transform="translate(350,350) rotate(408.00)" fill="#D4EDDA" opacity="0.58"/>
  <path d="M 7.51,-125.45 Q 0.00,-133.92 -7.51,-125.45 L -4.13,-128.06 Q 0.00,-131.51 4.13,-128.06 Z" transform="translate(350,350) rotate(420.00)" fill="#D4EDDA" opacity="0.58"/>
  <path d="M 7.35,-122.72 Q 0.00,-131.01 -7.35,-122.72 L -4.04,-125.28 Q 0.00,-128.66 4.04,-125.28 Z" transform="translate(350,350) rotate(432.00)" fill="#D4EDDA" opacity="0.57"/>
  <path d="M 7.19,-120.00 Q 0.00,-128.10 -7.19,-120.00 L -3.95,-122.50 Q 0.00,-125.80 3.95,-122.50 Z" transform="translate(350,350) rotate(444.00)" fill="#D4EDDA" opacity="0.56"/>
  <path d="M 7.02,-117.28 Q 0.00,-125.19 -7.02,-117.28 L -3.86,-119.72 Q 0.00,-122.94 3.86,-119.72 Z" transform="translate(350,350) rotate(456.00)" fill="#D4EDDA" opacity="0.55"/>
  <path d="M 6.86,-114.55 Q 0.00,-122.28 -6.86,-114.55 L -3.77,-116.94 Q 0.00,-120.09 3.77,-116.94 Z" transform="translate(350,350) rotate(468.00)" fill="#D4EDDA" opacity="0.54"/>
  <path d="M 6.70,-111.83 Q 0.00,-119.38 -6.70,-111.83 L -3.68,-114.16 Q 0.00,-117.23 3.68,-114.16 Z" transform="translate(350,350) rotate(480.00)" fill="#D4EDDA" opacity="0.54"/>
  <path d="M 6.53,-109.10 Q 0.00,-116.47 -6.53,-109.10 L -3.59,-111.38 Q 0.00,-114.38 3.59,-111.38 Z" transform="translate(350,350) rotate(492.00)" fill="#D4EDDA" opacity="0.53"/>
  <path d="M 6.37,-106.38 Q 0.00,-113.56 -6.37,-106.38 L -3.50,-108.59 Q 0.00,-111.52 3.50,-108.59 Z" transform="translate(350,350) rotate(504.00)" fill="#D4EDDA" opacity="0.52"/>
  <path d="M 6.21,-103.65 Q 0.00,-110.65 -6.21,-103.65 L -3.41,-105.81 Q 0.00,-108.66 3.41,-105.81 Z" transform="translate(350,350) rotate(516.00)" fill="#D4EDDA" opacity="0.51"/>
  <path d="M 6.05,-100.93 Q 0.00,-107.74 -6.05,-100.93 L -3.32,-103.03 Q 0.00,-105.81 3.32,-103.03 Z" transform="translate(350,350) rotate(528.00)" fill="#D4EDDA" opacity="0.51"/>
  <path d="M 5.88,-98.21 Q 0.00,-104.83 -5.88,-98.21 L -3.24,-100.25 Q 0.00,-102.95 3.24,-100.25 Z" transform="translate(350,350) rotate(540.00)" fill="#D4EDDA" opacity="0.50"/>
  <path d="M 5.72,-95.46 Q 0.00,-101.94 -5.72,-95.46 L -3.15,-97.46 Q 0.00,-100.10 3.15,-97.46 Z" transform="translate(350,350) rotate(552.00)" fill="#D4EDDA" opacity="0.49"/>
  <path d="M 5.56,-92.62 Q 0.00,-99.10 -5.56,-92.62 L -3.06,-94.62 Q 0.00,-97.26 3.06,-94.62 Z" transform="translate(350,350) rotate(564.00)" fill="#D4EDDA" opacity="0.48"/>
  <path d="M 5.39,-89.78 Q 0.00,-96.26 -5.39,-89.78 L -2.97,-91.78 Q 0.00,-94.42 2.97,-91.78 Z" transform="translate(350,350) rotate(576.00)" fill="#D4EDDA" opacity="0.47"/>
  <path d="M 5.23,-86.95 Q 0.00,-93.43 -5.23,-86.95 L -2.88,-88.95 Q 0.00,-91.59 2.88,-88.95 Z" transform="translate(350,350) rotate(588.00)" fill="#D4EDDA" opacity="0.47"/>
  <path d="M 5.07,-84.11 Q 0.00,-90.59 -5.07,-84.11 L -2.79,-86.11 Q 0.00,-88.75 2.79,-86.11 Z" transform="translate(350,350) rotate(600.00)" fill="#D4EDDA" opacity="0.46"/>
  <path d="M 4.90,-81.27 Q 0.00,-87.75 -4.90,-81.27 L -2.70,-83.27 Q 0.00,-85.91 2.70,-83.27 Z" transform="translate(350,350) rotate(612.00)" fill="#D4EDDA" opacity="0.45"/>
  <path d="M 4.74,-78.43 Q 0.00,-84.91 -4.74,-78.43 L -2.61,-80.43 Q 0.00,-83.07 2.61,-80.43 Z" transform="translate(350,350) rotate(624.00)" fill="#D4EDDA" opacity="0.44"/>
  <path d="M 4.58,-75.59 Q 0.00,-82.07 -4.58,-75.59 L -2.52,-77.59 Q 0.00,-80.23 2.52,-77.59 Z" transform="translate(350,350) rotate(636.00)" fill="#D4EDDA" opacity="0.43"/>
  <path d="M 4.41,-72.76 Q 0.00,-79.24 -4.41,-72.76 L -2.43,-74.76 Q 0.00,-77.40 2.43,-74.76 Z" transform="translate(350,350) rotate(648.00)" fill="#D4EDDA" opacity="0.43"/>
  <path d="M 4.25,-69.92 Q 0.00,-76.40 -4.25,-69.92 L -2.34,-71.92 Q 0.00,-74.56 2.34,-71.92 Z" transform="translate(350,350) rotate(660.00)" fill="#D4EDDA" opacity="0.42"/>
  <path d="M 4.09,-67.08 Q 0.00,-73.56 -4.09,-67.08 L -2.25,-69.08 Q 0.00,-71.72 2.25,-69.08 Z" transform="translate(350,350) rotate(672.00)" fill="#D4EDDA" opacity="0.41"/>
  <path d="M 3.92,-64.24 Q 0.00,-70.72 -3.92,-64.24 L -2.16,-66.24 Q 0.00,-68.88 2.16,-66.24 Z" transform="translate(350,350) rotate(684.00)" fill="#D4EDDA" opacity="0.40"/>
  <path d="M 3.76,-61.41 Q 0.00,-67.89 -3.76,-61.41 L -2.07,-63.41 Q 0.00,-66.05 2.07,-63.41 Z" transform="translate(350,350) rotate(696.00)" fill="#D4EDDA" opacity="0.40"/>
  <path d="M 3.60,-58.57 Q 0.00,-65.05 -3.60,-58.57 L -1.98,-60.57 Q 0.00,-63.21 1.98,-60.57 Z" transform="translate(350,350) rotate(708.00)" fill="#D4EDDA" opacity="0.39"/>
  <path d="M 3.43,-55.73 Q 0.00,-62.21 -3.43,-55.73 L -1.89,-57.73 Q 0.00,-60.37 1.89,-57.73 Z" transform="translate(350,350) rotate(720.00)" fill="#D4EDDA" opacity="0.38"/>
  <path d="M 3.27,-52.89 Q 0.00,-59.37 -3.27,-52.89 L -1.80,-54.89 Q 0.00,-57.53 1.80,-54.89 Z" transform="translate(350,350) rotate(732.00)" fill="#D4EDDA" opacity="0.37"/>
  <path d="M 3.11,-50.05 Q 0.00,-56.53 -3.11,-50.05 L -1.71,-52.05 Q 0.00,-54.69 1.71,-52.05 Z" transform="translate(350,350) rotate(744.00)" fill="#D4EDDA" opacity="0.36"/>
  <path d="M 2.94,-47.22 Q 0.00,-53.70 -2.94,-47.22 L -1.62,-49.22 Q 0.00,-51.86 1.62,-49.22 Z" transform="translate(350,350) rotate(756.00)" fill="#D4EDDA" opacity="0.36"/>
  <path d="M 2.78,-44.38 Q 0.00,-50.86 -2.78,-44.38 L -1.53,-46.38 Q 0.00,-49.02 1.53,-46.38 Z" transform="translate(350,350) rotate(768.00)" fill="#D4EDDA" opacity="0.35"/>
  <path d="M 2.62,-41.54 Q 0.00,-48.02 -2.62,-41.54 L -1.44,-43.54 Q 0.00,-46.18 1.44,-43.54 Z" transform="translate(350,350) rotate(780.00)" fill="#D4EDDA" opacity="0.34"/>
  <path d="M 2.46,-38.70 Q 0.00,-45.18 -2.46,-38.70 L -1.35,-40.70 Q 0.00,-43.34 1.35,-40.70 Z" transform="translate(350,350) rotate(792.00)" fill="#D4EDDA" opacity="0.33"/>
  <path d="M 2.29,-35.86 Q 0.00,-42.34 -2.29,-35.86 L -1.26,-37.86 Q 0.00,-40.50 1.26,-37.86 Z" transform="translate(350,350) rotate(804.00)" fill="#D4EDDA" opacity="0.32"/>
  <path d="M 2.13,-33.03 Q 0.00,-39.51 -2.13,-33.03 L -1.17,-35.03 Q 0.00,-37.67 1.17,-35.03 Z" transform="translate(350,350) rotate(816.00)" fill="#D4EDDA" opacity="0.32"/>
  <path d="M 1.97,-30.19 Q 0.00,-36.67 -1.97,-30.19 L -1.08,-32.19 Q 0.00,-34.83 1.08,-32.19 Z" transform="translate(350,350) rotate(828.00)" fill="#D4EDDA" opacity="0.31"/>
  <path d="M 1.80,-27.35 Q 0.00,-33.83 -1.80,-27.35 L -0.99,-29.35 Q 0.00,-31.99 0.99,-29.35 Z" transform="translate(350,350) rotate(840.00)" fill="#D4EDDA" opacity="0.30"/>
  <path d="M 1.64,-24.51 Q 0.00,-30.99 -1.64,-24.51 L -0.90,-26.51 Q 0.00,-29.15 0.90,-26.51 Z" transform="translate(350,350) rotate(852.00)" fill="#D4EDDA" opacity="0.29"/>
  <path d="M 1.48,-21.68 Q 0.00,-28.16 -1.48,-21.68 L -0.81,-23.68 Q 0.00,-26.32 0.81,-23.68 Z" transform="translate(350,350) rotate(864.00)" fill="#D4EDDA" opacity="0.29"/>
  <path d="M 1.31,-18.84 Q 0.00,-25.32 -1.31,-18.84 L -0.72,-20.84 Q 0.00,-23.48 0.72,-20.84 Z" transform="translate(350,350) rotate(876.00)" fill="#D4EDDA" opacity="0.28"/>
  <path d="M 1.15,-16.00 Q 0.00,-22.48 -1.15,-16.00 L -0.63,-18.00 Q 0.00,-20.64 0.63,-18.00 Z" transform="translate(350,350) rotate(888.00)" fill="#D4EDDA" opacity="0.27"/>
</g>
<circle cx="350" cy="350" r="12" fill="#040E05"/>
<circle cx="348" cy="347" r="4.5" fill="#66BB6A" opacity="0.20"/>
</svg>
